<svg width="52" height="52" fill="none" xmlns="http://www.w3.org/2000/svg"><path d="M6.79 6.548h22.742v5.307c0 .42.339.758.758.758h5.307v6.064h1.516v-6.822c0-.21-.086-.4-.223-.537l-6.062-6.062a.757.757 0 00-.538-.224H9.823V3.516h28.806v16.677h1.516V2.759A.757.757 0 0039.387 2H9.064a.757.757 0 00-.758.758v2.274H6.032a.757.757 0 00-.758.758v42.452c0 .42.339.758.758.758h25.774v-1.516H6.79V6.548zM31.048 7.62l3.477 3.477h-3.477V7.62z" fill="url(#paint0_linear)"/><path d="M46.968 24.742h-1.142a11.34 11.34 0 01-8.735-4.09l-.153-.185c-.287-.346-.878-.346-1.165 0l-.154.184a11.341 11.341 0 01-8.735 4.09h-1.142a.757.757 0 00-.758.759v12.278c0 2.985 1.61 5.76 4.202 7.24l6.793 3.882a.757.757 0 00.752 0l6.793-3.882a8.357 8.357 0 004.202-7.24V25.5a.757.757 0 00-.758-.758zm-.758 13.036a6.834 6.834 0 01-3.438 5.923l-6.417 3.669-6.417-3.668a6.837 6.837 0 01-3.438-5.924v-11.52h.384a12.85 12.85 0 009.47-4.148 12.849 12.849 0 009.472 4.148h.384v11.52z" fill="url(#paint1_linear)"/><path d="M36.355 27.016c-4.598 0-8.339 3.741-8.339 8.339 0 4.598 3.741 8.339 8.339 8.339 4.598 0 8.339-3.742 8.339-8.34 0-4.597-3.742-8.338-8.34-8.338zm0 15.161a6.83 6.83 0 01-6.823-6.822 6.83 6.83 0 016.823-6.823 6.83 6.83 0 016.822 6.823 6.83 6.83 0 01-6.822 6.822z" fill="url(#paint2_linear)"/><path d="M35.993 37.712l-1.376-1.377-1.072 1.072 2.274 2.274a.756.756 0 001.262-.318l2.274-7.58-1.452-.436-1.91 6.365z" fill="url(#paint3_linear)"/><path d="M8.306 14.129h19.71v1.516H8.306V14.13z" fill="url(#paint4_linear)"/><path d="M8.306 17.161h19.71v1.516H8.306v-1.516z" fill="url(#paint5_linear)"/><path d="M8.306 20.194h19.71v1.516H8.306v-1.517z" fill="url(#paint6_linear)"/><path d="M8.306 23.226h15.162v1.516H8.306v-1.516z" fill="url(#paint7_linear)"/><path d="M8.306 26.258h15.162v1.516H8.306v-1.516z" fill="url(#paint8_linear)"/><path d="M8.306 29.29h15.162v1.517H8.306V29.29z" fill="url(#paint9_linear)"/><path d="M8.306 38.387h15.162v1.516H8.306v-1.516z" fill="url(#paint10_linear)"/><path d="M8.306 41.42h15.162v1.515H8.306V41.42z" fill="url(#paint11_linear)"/><path d="M8.306 44.452h15.162v1.516H8.306v-1.516z" fill="url(#paint12_linear)"/><path d="M9.065 8.065h1.516V9.58H9.065V8.065z" fill="url(#paint13_linear)"/><path d="M12.097 8.065h1.516V9.58h-1.516V8.065z" fill="url(#paint14_linear)"/><path d="M15.13 8.065h1.515V9.58H15.13V8.065z" fill="url(#paint15_linear)"/><path d="M18.161 8.065h9.855V9.58h-9.855V8.065z" fill="url(#paint16_linear)"/><defs><linearGradient id="paint0_linear" x1="5.274" y1="2.29" x2="40.849" y2="2.829" gradientUnits="userSpaceOnUse"><stop stop-color="#EB5D56"/><stop offset="1" stop-color="#390A40"/></linearGradient><linearGradient id="paint1_linear" x1="24.984" y1="20.385" x2="48.184" y2="20.759" gradientUnits="userSpaceOnUse"><stop stop-color="#EB5D56"/><stop offset="1" stop-color="#390A40"/></linearGradient><linearGradient id="paint2_linear" x1="28.016" y1="27.119" x2="45.027" y2="27.466" gradientUnits="userSpaceOnUse"><stop stop-color="#EB5D56"/><stop offset="1" stop-color="#390A40"/></linearGradient><linearGradient id="paint3_linear" x1="33.545" y1="31.4" x2="39.473" y2="31.482" gradientUnits="userSpaceOnUse"><stop stop-color="#EB5D56"/><stop offset="1" stop-color="#390A40"/></linearGradient><linearGradient id="paint4_linear" x1="8.306" y1="14.138" x2="27.096" y2="19.123" gradientUnits="userSpaceOnUse"><stop stop-color="#EB5D56"/><stop offset="1" stop-color="#390A40"/></linearGradient><linearGradient id="paint5_linear" x1="8.306" y1="17.171" x2="27.096" y2="22.156" gradientUnits="userSpaceOnUse"><stop stop-color="#EB5D56"/><stop offset="1" stop-color="#390A40"/></linearGradient><linearGradient id="paint6_linear" x1="8.306" y1="20.203" x2="27.096" y2="25.188" gradientUnits="userSpaceOnUse"><stop stop-color="#EB5D56"/><stop offset="1" stop-color="#390A40"/></linearGradient><linearGradient id="paint7_linear" x1="8.306" y1="23.235" x2="23.159" y2="26.266" gradientUnits="userSpaceOnUse"><stop stop-color="#EB5D56"/><stop offset="1" stop-color="#390A40"/></linearGradient><linearGradient id="paint8_linear" x1="8.306" y1="26.267" x2="23.159" y2="29.299" gradientUnits="userSpaceOnUse"><stop stop-color="#EB5D56"/><stop offset="1" stop-color="#390A40"/></linearGradient><linearGradient id="paint9_linear" x1="8.306" y1="29.3" x2="23.159" y2="32.331" gradientUnits="userSpaceOnUse"><stop stop-color="#EB5D56"/><stop offset="1" stop-color="#390A40"/></linearGradient><linearGradient id="paint10_linear" x1="8.306" y1="38.397" x2="23.159" y2="41.428" gradientUnits="userSpaceOnUse"><stop stop-color="#EB5D56"/><stop offset="1" stop-color="#390A40"/></linearGradient><linearGradient id="paint11_linear" x1="8.306" y1="41.429" x2="23.159" y2="44.46" gradientUnits="userSpaceOnUse"><stop stop-color="#EB5D56"/><stop offset="1" stop-color="#390A40"/></linearGradient><linearGradient id="paint12_linear" x1="8.306" y1="44.461" x2="23.159" y2="47.492" gradientUnits="userSpaceOnUse"><stop stop-color="#EB5D56"/><stop offset="1" stop-color="#390A40"/></linearGradient><linearGradient id="paint13_linear" x1="9.065" y1="8.074" x2="10.611" y2="8.105" gradientUnits="userSpaceOnUse"><stop stop-color="#EB5D56"/><stop offset="1" stop-color="#390A40"/></linearGradient><linearGradient id="paint14_linear" x1="12.097" y1="8.074" x2="13.643" y2="8.105" gradientUnits="userSpaceOnUse"><stop stop-color="#EB5D56"/><stop offset="1" stop-color="#390A40"/></linearGradient><linearGradient id="paint15_linear" x1="15.129" y1="8.074" x2="16.675" y2="8.105" gradientUnits="userSpaceOnUse"><stop stop-color="#EB5D56"/><stop offset="1" stop-color="#390A40"/></linearGradient><linearGradient id="paint16_linear" x1="18.161" y1="8.074" x2="28.043" y2="9.385" gradientUnits="userSpaceOnUse"><stop stop-color="#EB5D56"/><stop offset="1" stop-color="#390A40"/></linearGradient></defs></svg>