<?xml version="1.0" encoding="utf-8"?><svg viewBox="0 0 179 64" xmlns="http://www.w3.org/2000/svg" xmlns:xlink="http://www.w3.org/1999/xlink"><style>:root>svg{display:none}:root>svg:target{display:block}</style><svg viewBox="0 0 57 22" id="art" xmlns="http://www.w3.org/2000/svg"><path d="M32.087 22L44.543 0l3.115 5.5-3.114 5.5h6.228L57 22H32.087zM22.792 7.174v-1.71h9.345v1.71h-3.774v9.29h-1.797v-9.29h-3.774z" fill-opacity=".81"/><path fill-rule="evenodd" clip-rule="evenodd" d="M19.622 11.643l2.766 4.821h-2.022l-2.669-4.66H15.3v4.66h-1.796V5.479h5.142c1.736 0 3.157 1.273 3.157 3.182 0 1.418-.767 2.514-2.18 2.982zM18.434 7.18H15.3v2.96h3.135c.79 0 1.601-.56 1.601-1.48 0-.866-.744-1.48-1.6-1.48zM9.57 14.766l.967 1.71h1.92l-6.229-11-6.228 11h1.919l.968-1.71H9.57zm-.964-1.701l-2.378-4.2-2.378 4.2h4.756z" fill-opacity=".81"/></svg><svg viewBox="0 0 26.5 29" id="cart" xmlns="http://www.w3.org/2000/svg"><path d="M26.328 2.22q-.455.987-1.1 2.614t-1.365 3.5q-.719 1.874-1.418 3.807t-1.27 3.483q-.57 1.554-1.288 3.523a7.592 7.592 0 01-.682 1.23 1.288 1.288 0 01-1.138.55h-13.1a1.419 1.419 0 01-1.193-.569 3.651 3.651 0 01-.625-1.212L.082 7.671a1.62 1.62 0 01.132-1.287 1.907 1.907 0 011.684-.53h19.314L23.486.932a1.454 1.454 0 01.946-.873 1.661 1.661 0 011.134.1 1.717 1.717 0 01.816.794 1.379 1.379 0 01-.054 1.267zM9.288 26.269A2.724 2.724 0 016.561 29a2.676 2.676 0 01-1.97-.8 2.627 2.627 0 01-.795-1.93 2.7 2.7 0 01.795-1.951 2.645 2.645 0 011.97-.814 2.593 2.593 0 011.928.814 2.7 2.7 0 01.799 1.95zm9.5 0A2.715 2.715 0 0116.066 29a2.675 2.675 0 01-1.97-.8 2.628 2.628 0 01-.8-1.93 2.7 2.7 0 01.8-1.951 2.643 2.643 0 011.97-.814 2.605 2.605 0 011.932.814 2.7 2.7 0 01.794 1.95z" fill-rule="evenodd"/></svg><svg viewBox="0 0 179 64" id="logo" xmlns="http://www.w3.org/2000/svg"><path d="M56 29.954L58 30c.006-.26 0-1.498 0-1.76V11a1 1 0 00-1-1 41.861 41.861 0 01-23.264-7.041l-1.179-.79a1 1 0 00-1.114 0l-1.176.789A42.17 42.17 0 0119.151 8.2 42.026 42.026 0 017 10a1 1 0 00-1 1v21h2V11.988a44.032 44.032 0 0011.73-1.871 44.124 44.124 0 0011.647-5.5L32 4.2l.626.419A43.831 43.831 0 0056 11.988V28.24c0 .246.009 1.468 0 1.714zM40.151 55.288L32 59.854l-8.15-4.566a30.986 30.986 0 01-7.581-5.968L14.8 50.68a32.97 32.97 0 008.07 6.352l8.64 4.84a.994.994 0 00.976 0l8.64-4.84a32.898 32.898 0 007.591-5.844L47.281 49.8a30.86 30.86 0 01-7.13 5.488z"/><path d="M18.285 48.536a28.728 28.728 0 006.546 5.006l6.68 3.75a1 1 0 00.978 0l6.679-3.749a28.828 28.828 0 005.512-4l-1.36-1.467a26.844 26.844 0 01-5.13 3.724L32 55.273 25.808 51.8a26.755 26.755 0 01-6.093-4.659l-1.43 1.395zM52 28h2c.007-.262 0 .212 0-.051V14.83a1 1 0 00-.916-1 46.02 46.02 0 01-20.552-6.887 1 1 0 00-1.064 0 46.021 46.021 0 01-20.552 6.891 1 1 0 00-.916 1V28.24c0 .263-.01 1.499-.003 1.76h2c-.008-.244.003-1.515.003-1.76v-12.5a48.059 48.059 0 0020-6.773 48.06 48.06 0 0020 6.773V28c.007-.243 0 .245 0 0z"/><path d="M33 12h-2v2h2v-2zM16 17h-2v2h2v-2zM50 17h-2v2h2v-2zM33 50h-2v2h2v-2zM25 15h-2v2h2v-2zM41 15h-2v2h2v-2zM26 47h-2v2h2v-2zM40 47h-2v2h2v-2zM26.938 34.337h4.15v2.076h-4.15v-2.076z"/><path d="M62.36 31.235l-7.048-1.006a35.566 35.566 0 00-3.993-2.116A34.938 34.938 0 0036.864 25H35.64a35.266 35.266 0 00-16.84 4.294l-3.556 1.94A24.514 24.514 0 003.38 34.45 4.736 4.736 0 001 38.552v6.16c0 .574.464 1.038 1.038 1.038H5.52a6.202 6.202 0 0011.706 0h27.72a6.202 6.202 0 0011.706 0h.372c.132 0 .263-.025.386-.074l3.36-1.348a3.923 3.923 0 002.479-3.662v-8.404c0-.515-.38-.953-.89-1.027zm-46.92 13.27a4.15 4.15 0 11-8.13-1.662 4.15 4.15 0 018.13 1.662zm18.76-.83H17.6a6.225 6.225 0 10-12.45 0H3.075v-5.123c.001-.95.51-1.828 1.335-2.3A22.432 22.432 0 0115.525 33.3H34.2v10.375zm0-12.45H19.594l.2-.11A33.175 33.175 0 0134.2 27.122v4.104zm2.075-4.15h.587a32.83 32.83 0 0112.208 2.339l-1.812 1.811H36.275v-4.15zm18.59 17.43a4.15 4.15 0 11-8.131-1.662 4.15 4.15 0 018.132 1.662zm6.31-10.168h-3.112v2.076h3.112v4.253a1.857 1.857 0 01-1.174 1.734l-2.976 1.195c0-.096-.012-.19-.019-.285-.006-.096-.008-.208-.018-.312-.01-.103-.032-.207-.048-.31-.017-.105-.03-.209-.05-.303-.02-.094-.05-.199-.078-.298-.027-.098-.048-.198-.079-.294-.03-.097-.068-.189-.103-.284-.036-.094-.068-.191-.104-.285-.037-.093-.086-.178-.129-.266-.043-.089-.086-.185-.135-.274-.049-.09-.104-.165-.15-.248a3.22 3.22 0 00-.163-.263c-.06-.085-.114-.152-.171-.229-.057-.077-.122-.167-.188-.247-.066-.08-.128-.142-.193-.208-.064-.065-.136-.153-.207-.225-.072-.073-.143-.13-.214-.195-.072-.064-.148-.14-.227-.207-.079-.068-.16-.12-.238-.178-.079-.06-.158-.123-.24-.178-.084-.055-.177-.104-.266-.162a3.003 3.003 0 00-.246-.148c-.084-.045-.189-.092-.284-.137-.096-.046-.17-.086-.258-.124-.089-.037-.208-.076-.312-.114-.104-.037-.171-.066-.26-.094-.117-.036-.239-.063-.36-.093-.078-.018-.154-.043-.234-.06-.127-.026-.258-.04-.388-.06-.076-.01-.15-.026-.227-.033a6.231 6.231 0 00-6.858 6.193h-8.303V33.3h11.413c.275 0 .539-.11.733-.304l2.69-2.69a33.26 33.26 0 013.29 1.799c.122.076.258.126.402.147l6.372.91v1.175zM81.348 34.66h-4.325L76.03 38h-1.652L78.5 25.203h1.38L84.01 38h-1.652l-1.01-3.34zm-3.903-1.388h3.49l-1.75-5.819-1.74 5.819zM85.751 38V25.203h3.647c1.166 0 2.042.284 2.628.853.592.568.888 1.42.888 2.557 0 .598-.15 1.125-.448 1.582a3.013 3.013 0 01-1.213 1.064c.586.176 1.049.536 1.389 1.08.345.546.518 1.202.518 1.97 0 1.148-.316 2.05-.95 2.707-.626.656-1.522.984-2.688.984H85.75zm1.608-5.985v4.605h2.198c.609 0 1.092-.2 1.45-.597.357-.405.536-.97.536-1.697 0-1.54-.65-2.311-1.951-2.311h-2.233zm0-1.354h2.066c.556 0 1.005-.187 1.344-.562.346-.375.52-.873.52-1.494 0-.704-.156-1.213-.467-1.53-.31-.322-.785-.483-1.424-.483H87.36v4.07zM102.811 26.592h-3.367V38h-1.608V26.592h-3.358v-1.389h8.333v1.389zM112.777 32.727c0 1.746-.372 3.09-1.116 4.034-.744.943-1.802 1.415-3.173 1.415-1.318 0-2.361-.457-3.129-1.371-.761-.92-1.157-2.218-1.186-3.894v-2.408c0-1.711.378-3.05 1.134-4.017.755-.972 1.81-1.459 3.164-1.459 1.347 0 2.396.466 3.146 1.398.756.926 1.143 2.25 1.16 3.973v2.329zm-1.608-2.242c0-1.353-.223-2.358-.668-3.014-.439-.662-1.116-.994-2.03-.994-.885 0-1.556.334-2.013 1.003-.451.668-.68 1.652-.686 2.953v2.294c0 1.306.226 2.302.677 2.988.457.685 1.137 1.028 2.039 1.028.903 0 1.571-.316 2.004-.95.434-.632.659-1.602.677-2.908v-2.4zM120.644 28.64c0-.686-.197-1.228-.589-1.626-.387-.399-.926-.598-1.617-.598-.586 0-1.076.205-1.468.615-.387.41-.58.923-.58 1.538h-1.609c0-1.049.349-1.901 1.046-2.557.697-.657 1.568-.985 2.611-.985 1.212 0 2.153.323 2.821.967.668.645 1.002 1.535 1.002 2.672 0 .592-.156 1.13-.466 1.617-.311.486-.738.87-1.283 1.152 1.271.51 1.907 1.508 1.907 2.997 0 1.16-.366 2.074-1.099 2.742-.726.668-1.687 1.002-2.882 1.002a4.597 4.597 0 01-1.495-.246 3.512 3.512 0 01-1.248-.765c-.715-.674-1.072-1.58-1.072-2.716h1.608c0 .668.206 1.228.616 1.679.416.451.946.677 1.591.677.72 0 1.294-.211 1.722-.633.434-.428.651-.996.651-1.705 0-1.489-.712-2.253-2.136-2.294h-1.319v-1.389h1.205c.679 0 1.195-.184 1.546-.553.358-.37.537-.9.537-1.591zM130.549 34.66h-4.324l-.994 3.34h-1.652l4.122-12.797h1.38L133.212 38h-1.652l-1.011-3.34zm-3.903-1.388h3.49l-1.749-5.819-1.741 5.819zM136.648 25.203V36.62h3.472V25.203h1.6V36.62h3.445V25.203h1.617v11.47h1.108l-.159 4.412h-1.371V38h-11.329V25.203h1.617zM156.775 25.203h1.609V38h-1.609v-9.861L151.792 38h-1.617V25.203h1.617v9.862l4.983-9.862zM168.465 26.592h-3.366V38h-1.609V26.592h-3.357v-1.389h8.332v1.389zM175.619 34.66h-4.324l-.993 3.34h-1.653l4.122-12.797h1.38L178.282 38h-1.652l-1.011-3.34zm-3.902-1.388h3.489l-1.749-5.819-1.74 5.819z"/><defs><linearGradient id="cpaint0_linear" x1="6" y1="2.185" x2="58.998" y2="4.06" gradientUnits="userSpaceOnUse"><stop stop-color="#EB5D56"/><stop offset="1" stop-color="#390A40"/></linearGradient><linearGradient id="cpaint1_linear" x1="14.8" y1="49.398" x2="49.306" y2="51.282" gradientUnits="userSpaceOnUse"><stop stop-color="#EB5D56"/><stop offset="1" stop-color="#390A40"/></linearGradient><linearGradient id="cpaint2_linear" x1="18.285" y1="47.205" x2="45.145" y2="48.612" gradientUnits="userSpaceOnUse"><stop stop-color="#EB5D56"/><stop offset="1" stop-color="#390A40"/></linearGradient><linearGradient id="cpaint3_linear" x1="9.994" y1="6.933" x2="54.834" y2="8.668" gradientUnits="userSpaceOnUse"><stop stop-color="#EB5D56"/><stop offset="1" stop-color="#390A40"/></linearGradient><linearGradient id="cpaint4_linear" x1="31" y1="12.012" x2="33.04" y2="12.054" gradientUnits="userSpaceOnUse"><stop stop-color="#EB5D56"/><stop offset="1" stop-color="#390A40"/></linearGradient><linearGradient id="cpaint5_linear" x1="14" y1="17.012" x2="16.04" y2="17.054" gradientUnits="userSpaceOnUse"><stop stop-color="#EB5D56"/><stop offset="1" stop-color="#390A40"/></linearGradient><linearGradient id="cpaint6_linear" x1="48" y1="17.012" x2="50.04" y2="17.054" gradientUnits="userSpaceOnUse"><stop stop-color="#EB5D56"/><stop offset="1" stop-color="#390A40"/></linearGradient><linearGradient id="cpaint7_linear" x1="31" y1="50.012" x2="33.04" y2="50.054" gradientUnits="userSpaceOnUse"><stop stop-color="#EB5D56"/><stop offset="1" stop-color="#390A40"/></linearGradient><linearGradient id="cpaint8_linear" x1="23" y1="15.012" x2="25.04" y2="15.054" gradientUnits="userSpaceOnUse"><stop stop-color="#EB5D56"/><stop offset="1" stop-color="#390A40"/></linearGradient><linearGradient id="cpaint9_linear" x1="39" y1="15.012" x2="41.04" y2="15.054" gradientUnits="userSpaceOnUse"><stop stop-color="#EB5D56"/><stop offset="1" stop-color="#390A40"/></linearGradient><linearGradient id="cpaint10_linear" x1="24" y1="47.012" x2="26.04" y2="47.054" gradientUnits="userSpaceOnUse"><stop stop-color="#EB5D56"/><stop offset="1" stop-color="#390A40"/></linearGradient><linearGradient id="cpaint11_linear" x1="38" y1="47.012" x2="40.04" y2="47.054" gradientUnits="userSpaceOnUse"><stop stop-color="#EB5D56"/><stop offset="1" stop-color="#390A40"/></linearGradient><linearGradient id="cpaint12_linear" x1="26.938" y1="34.35" x2="31.165" y2="34.523" gradientUnits="userSpaceOnUse"><stop stop-color="#EB5D56"/><stop offset="1" stop-color="#390A40"/></linearGradient><linearGradient id="cpaint13_linear" x1="1" y1="25.154" x2="64.356" y2="28.386" gradientUnits="userSpaceOnUse"><stop stop-color="#EB5D56"/><stop offset="1" stop-color="#390A40"/></linearGradient><linearGradient id="cpaint14_linear" x1="74.378" y1="25.127" x2="178.585" y2="38.888" gradientUnits="userSpaceOnUse"><stop stop-color="#EB5D56"/><stop offset="1" stop-color="#390A40"/></linearGradient><linearGradient id="cpaint15_linear" x1="74.378" y1="25.127" x2="178.585" y2="38.888" gradientUnits="userSpaceOnUse"><stop stop-color="#EB5D56"/><stop offset="1" stop-color="#390A40"/></linearGradient><linearGradient id="cpaint16_linear" x1="74.378" y1="25.127" x2="178.585" y2="38.888" gradientUnits="userSpaceOnUse"><stop stop-color="#EB5D56"/><stop offset="1" stop-color="#390A40"/></linearGradient><linearGradient id="cpaint17_linear" x1="74.378" y1="25.127" x2="178.585" y2="38.888" gradientUnits="userSpaceOnUse"><stop stop-color="#EB5D56"/><stop offset="1" stop-color="#390A40"/></linearGradient><linearGradient id="cpaint18_linear" x1="74.378" y1="25.127" x2="178.585" y2="38.888" gradientUnits="userSpaceOnUse"><stop stop-color="#EB5D56"/><stop offset="1" stop-color="#390A40"/></linearGradient><linearGradient id="cpaint19_linear" x1="74.378" y1="25.127" x2="178.585" y2="38.888" gradientUnits="userSpaceOnUse"><stop stop-color="#EB5D56"/><stop offset="1" stop-color="#390A40"/></linearGradient><linearGradient id="cpaint20_linear" x1="74.378" y1="25.127" x2="178.585" y2="38.888" gradientUnits="userSpaceOnUse"><stop stop-color="#EB5D56"/><stop offset="1" stop-color="#390A40"/></linearGradient><linearGradient id="cpaint21_linear" x1="74.378" y1="25.127" x2="178.585" y2="38.888" gradientUnits="userSpaceOnUse"><stop stop-color="#EB5D56"/><stop offset="1" stop-color="#390A40"/></linearGradient><linearGradient id="cpaint22_linear" x1="74.378" y1="25.127" x2="178.585" y2="38.888" gradientUnits="userSpaceOnUse"><stop stop-color="#EB5D56"/><stop offset="1" stop-color="#390A40"/></linearGradient><linearGradient id="cpaint23_linear" x1="74.378" y1="25.127" x2="178.585" y2="38.888" gradientUnits="userSpaceOnUse"><stop stop-color="#EB5D56"/><stop offset="1" stop-color="#390A40"/></linearGradient></defs></svg><svg viewBox="0 0 17 17" id="phone" xmlns="http://www.w3.org/2000/svg"><path d="M16.964 13.243c-.049-.146-.356-.36-.923-.643a25.43 25.43 0 00-.655-.364 80.32 80.32 0 01-.771-.425c-.23-.13-.447-.255-.65-.376a15.528 15.528 0 00-.303-.213 3.402 3.402 0 00-.431-.261.794.794 0 00-.346-.085c-.162 0-.364.116-.607.346-.242.23-.465.482-.667.753a7.314 7.314 0 01-.643.752c-.227.231-.413.346-.559.346-1.284 0-3.082-1.77-3.897-2.585-.879-.88-2.585-2.537-2.585-3.897 0-.146.115-.332.346-.558a7.31 7.31 0 01.752-.644c.271-.202.522-.424.753-.667.23-.243.346-.445.346-.607a.793.793 0 00-.085-.346 3.374 3.374 0 00-.261-.43c-.118-.17-.188-.272-.213-.304a26.67 26.67 0 01-.376-.65c-.13-.23-.271-.487-.425-.77A28.856 28.856 0 004.4.958C4.117.393 3.902.085 3.757.037A.68.68 0 003.502 0a4 4 0 00-.856.121c-.352.081-.63.166-.832.255C1.41.546.981 1.04.528 1.857-.714 4.146.458 7.342 1.754 9.42c1.417 2.297 3.529 4.409 5.826 5.826 2.077 1.295 5.275 2.468 7.563 1.227.895-.496 1.433-1.015 1.691-1.945.016-.056.03-.114.044-.174.082-.351.122-.637.122-.855a.675.675 0 00-.036-.256z"/><defs><linearGradient id="dpaint0_linear" x1="0" y1=".105" x2="17.34" y2=".459" gradientUnits="userSpaceOnUse"><stop stop-color="#EB5D56"/><stop offset="1" stop-color="#390A40"/></linearGradient></defs></svg><svg viewBox="0 0 24.031 24.031" id="search" xmlns="http://www.w3.org/2000/svg"><path d="M23.471 22.791l-.7.7a1.807 1.807 0 01-2.555 0l-4.42-4.42a10.319 10.319 0 113.263-3.252l4.415 4.415a1.807 1.807 0 01-.003 2.557zM10.321 2.857a7.465 7.465 0 107.465 7.465 7.465 7.465 0 00-7.465-7.466z" fill-rule="evenodd"/></svg><svg viewBox="0 0 25 25" id="wish" xmlns="http://www.w3.org/2000/svg"><path d="M12.5 0A12.5 12.5 0 1025 12.5 12.5 12.5 0 0012.5 0zm4.52 19.455l-4.58-2.409-4.57 2.409.87-5.1-3.71-3.613 5.12-.744 2.29-4.64 2.29 4.64 5.12.744-3.7 3.613z" fill-rule="evenodd"/></svg></svg>